<svg width="284" height="18" viewBox="0 0 284 18" fill="none" xmlns="http://www.w3.org/2000/svg">
<line x1="3.00362" y1="8.50001" x2="281.004" y2="10.5145" stroke="white"/>
<circle cx="9" cy="9" r="9" fill="#03989E"/>
<circle cx="275" cy="9" r="9" fill="#D9D9D9"/>
<circle cx="138" cy="9" r="9" fill="#D9D9D9"/>
<path d="M8.49558 14V4.978H9.70458V14H8.49558ZM6.64958 6.07V4.978H9.57458V6.07H6.64958Z" fill="white"/>
<path d="M134.912 13.259L138.24 9.749C138.578 9.40233 138.843 9.10333 139.033 8.852C139.224 8.592 139.358 8.35367 139.436 8.137C139.523 7.92033 139.566 7.695 139.566 7.461C139.566 7.00167 139.419 6.642 139.124 6.382C138.83 6.122 138.448 5.992 137.98 5.992C137.521 5.992 137.118 6.10467 136.771 6.33C136.425 6.54667 136.117 6.88467 135.848 7.344L134.99 6.629C135.346 6.03967 135.775 5.59767 136.277 5.303C136.78 4.99967 137.361 4.848 138.019 4.848C138.574 4.848 139.055 4.95633 139.462 5.173C139.878 5.38967 140.199 5.693 140.424 6.083C140.65 6.473 140.762 6.928 140.762 7.448C140.762 7.82067 140.715 8.15433 140.619 8.449C140.533 8.74367 140.372 9.047 140.138 9.359C139.913 9.66233 139.597 10.0263 139.189 10.451L136.498 13.22L134.912 13.259ZM134.912 14V13.259L135.952 12.908H140.97V14H134.912Z" fill="#03989E"/>
<path d="M274.713 14.13C274.124 14.13 273.587 14.0217 273.101 13.805C272.625 13.5797 272.222 13.2547 271.892 12.83L272.724 11.998C272.924 12.3013 273.197 12.544 273.543 12.726C273.89 12.8993 274.276 12.986 274.7 12.986C275.099 12.986 275.441 12.9123 275.727 12.765C276.022 12.609 276.252 12.3923 276.416 12.115C276.59 11.8377 276.676 11.517 276.676 11.153C276.676 10.7803 276.59 10.4597 276.416 10.191C276.252 9.91367 276.018 9.70133 275.714 9.554C275.411 9.40667 275.051 9.333 274.635 9.333C274.479 9.333 274.323 9.346 274.167 9.372C274.011 9.38933 273.86 9.41967 273.712 9.463L274.232 8.761C274.397 8.683 274.575 8.62233 274.765 8.579C274.956 8.53567 275.147 8.514 275.337 8.514C275.823 8.514 276.256 8.62667 276.637 8.852C277.027 9.07733 277.335 9.39367 277.56 9.801C277.794 10.2083 277.911 10.6807 277.911 11.218C277.911 11.79 277.773 12.297 277.495 12.739C277.227 13.1723 276.854 13.5147 276.377 13.766C275.901 14.0087 275.346 14.13 274.713 14.13ZM273.712 9.463V8.722L276.351 5.719L277.807 5.706L275.09 8.787L273.712 9.463ZM272.321 6.07V4.978H277.807V5.706L276.741 6.07H272.321Z" fill="#03989E"/>
</svg>